# Blender v2.75 (sub 0) OBJ File: ''
# www.blender.org
mtllib random.mtl
o Cube_Cube.001
v -2.799334 0.034568 -0.120968
v -1.996782 1.612766 0.953612
v -2.444991 1.010930 -2.199057
v -2.588385 1.884985 -1.130131
v -1.398499 -0.613276 0.515108
v -0.417458 2.749475 0.313392
v -1.166966 -0.622394 -1.800365
v -0.327689 2.010592 -1.606307
vn -0.979600 0.169900 0.106800
vn 0.114200 0.316500 -0.941700
vn 0.949700 -0.288200 0.122900
vn 0.031700 -0.185000 0.982200
vn -0.570600 -0.782800 -0.248400
vn -0.329500 0.941700 -0.068500
usemtl None
s off
f 2//1 4//1 3//1 1//1
f 4//2 8//2 7//2 3//2
f 8//3 6//3 5//3 7//3
f 6//4 2//4 1//4 5//4
f 1//5 3//5 7//5 5//5
f 6//6 8//6 4//6 2//6
